<svg xmlns="http://www.w3.org/2000/svg" width="186" height="49" viewBox="0 0 186 49"><path d="M8.488 24.63c0-4.3 3.13-7.54 7.26-7.54 4.19 0 7.484 3.408 7.484 7.43 0 4.186-3.24 7.372-7.76 7.372-3.8 0-6.984-3.13-6.984-7.263m.057 11.726c2.626 2.57 5.305 3.52 8.88 3.52 3.63 0 6.755-1.175 9.382-3.52 3.462-3.07 5.248-7.09 5.248-11.78 0-4.303-1.675-8.156-4.8-11.172-2.795-2.738-6.2-4.13-9.998-4.13-3.796 0-6.534 1.392-8.377 3.796V0H0v39.704h8.545v-3.348zM53.984 30.996c-1.34 1.173-2.797 1.677-4.582 1.677-3.853 0-6.143-1.677-6.924-4.86h22.618v-.947c0-11.172-6.535-18.042-16.084-18.042-4.075 0-8.04 1.676-11.058 4.696-2.958 2.958-4.577 6.81-4.577 11 0 4.243 1.51 8.04 4.41 11.112 3.07 3.244 6.758 4.806 11.335 4.806 6.702 0 11.674-3.186 14.576-9.44h-9.714zM42.2 21.558c.612-2.846 3.24-4.746 6.923-4.746 3.52 0 6.033 1.674 7.093 4.746H42.2zM77.47 49.422L93.388 9.718h-9.493L77.525 27.2 71.887 9.718h-9.774l11 28.147-4.524 11.557zM91.546 24.63c0 4.187 1.51 8.04 4.414 11.057 3.07 3.238 6.76 4.802 11.336 4.802 4.522 0 8.32-1.616 11.393-4.69 3.016-3.016 4.523-6.758 4.523-11.28 0-4.075-1.73-8.212-4.915-11.227-3.015-2.848-6.757-4.357-11.113-4.357-4.076 0-8.04 1.676-11.057 4.688-2.96 2.96-4.582 6.82-4.582 11.005m8.714.11c0-4.13 3.183-7.427 7.094-7.427 3.907 0 7.092 3.296 7.092 7.428 0 4.077-3.185 7.373-7.092 7.373-3.854 0-7.094-3.296-7.094-7.372" clip-rule="evenodd" /><path d="M133.735 39.705V23.46c0-4.027 1.842-6.092 5.305-6.092 3.406 0 4.3 1.898 4.3 6.092v16.244h8.825V19.94c0-6.87-4.023-10.78-10.22-10.78-3.966 0-6.758 1.563-8.602 4.58l.11-4.023h-8.375v29.987h8.657zM177.503 39.705h8.545V0h-8.825v13.07c-2.008-2.57-4.803-3.795-8.43-3.795-3.8 0-7.207 1.39-9.997 4.13-3.128 3.015-4.803 6.87-4.803 11.17 0 4.69 1.784 8.708 5.25 11.78 2.624 2.346 5.75 3.522 9.38 3.522 3.575 0 6.257-.95 8.88-3.52v3.348zm-14.69-15.186c0-4.022 3.244-7.43 7.43-7.43 4.133 0 7.313 3.24 7.313 7.54 0 4.13-3.18 7.262-6.98 7.262-4.518 0-7.762-3.185-7.762-7.373" clip-rule="evenodd" /></svg>